/* XPM */
static char *result[] = {
/* columns rows colors chars-per-pixel */
"64 64 5 1 ",
"  c #41173D",
". c #55173D",
"X c #E1173F",
"o c #AF1740",
"O c None",
/* pixels */
"OOOOOOOOOOOOOOOOOOOOOOOOOOOOOOOOOOOOOOOOOOOOOOOOOOOOOOOOOOOOOOOO",
"OOOOOOOOOOOOOOOOOOOOOOOOOOOOOOOOOOOOOOOOOOOOOOOOOOOOOOOOOOOOOOOO",
"OOOOOOOOOOOOOOOOOOOOOOOOOOOOOOOOOOOOOOOOOOOOOOOOOOOOOOOOOOOOOOOO",
"OOOOOOOOOOOOOOOOOOOOOOOOOOOOOOOOOOOOOOOOOOOOOOOOOOOOOOOOOOOOOOOO",
"OOOOOOOOOOOOOOOOOOOOOOOOOOOOOOOOOOOOOOOOOOOOOOOOOOOOOOOOOOOOOOOO",
"OOOOOOOOOOOOOOOOOOOOOOOOOOOOOOOOOOOOOOOOOOOOOOOOOOOOOOOOOOOOOOOO",
"OOOOOOOOOOOOOOOOOOOOOOOOOOOOOOOOOOOOOOOOOOOOOOOOOOOOOOOOOOOOOOOO",
"OOOOOOOOOOOOOOOOOOOOOOOOOOOOOOOOOOOOOOOOOOOOOOOOOOOOOOOOOOOOOOOO",
"OOOOOOOOOOOOOOOOOOOOOOOOOOOOOOOOOOOOOOOOOOOOOOOOOOOOOOOOOOOOOOOO",
"OOOOOOOOOOOOOOOOOOOOOOOOOOOOOOOOOOOOOOOOOOOOOOOOOOOOOOOOOOOOOOOO",
"OOOOOOOOOOOOOOOOOOOOOOOOOOOOOOOOOOOOOOOOOOOOOOXXOOXXOOOOOOOOOOOO",
"OOOOOOOOOOOOOOOOOOOOOOOOOOOOOOOOOOOOOOOOOOOOOOXXOOXXOOOOOOOOOOOO",
"OOOOOOOOOOOOOOOOOOOOOOOOOOOOOOOOOOOOOOOOOOOOOOOOXXOOOOOOOOOOOOOO",
"OOOOOOOOOOOOOOOOOOOOOOOOOOOOOOOOOOOOOOOOOOOOOOOOXXOOOOOOOOOOOOOO",
"OOOOOOOOOOOOOOOOOOOOOOOO  ooooooooooOOOOOOOOOOXXOOXXOOOOOOOOOOOO",
"OOOOOOOOOOOOOOOOOOOOOOOO  ooooooooooOOOOOOOOOOXXOOXXOOOOOOOOOOOO",
"OOOOOOOOOOOOOOOOOOOO      ooooooooooooooooooooOOOOOOOOOOOOOOOOOO",
"OOOOOOOOOOOOOOOOOOOO      ooooooooooooooooooooOOOOOOOOOOOOOOOOOO",
"OOOOOOOOOOOOOOOOOOOO      oooooooooooooooooooo    OOOOOOOOOOOOOO",
"OOOOOOOOOOOOOOOOOOOO      oooooooooooooooooooo    OOOOOOOOOOOOOO",
"OOOOOOOOOOOOOOOOOOOO    oooooooooooooooo    oo    OOOOOOOOOOOOOO",
"OOOOOOOOOOOOOOOOOOOO    oooooooooooooooo    oo    OOOOOOOOOOOOOO",
"OOOOOOOOOOOOOOOOOOOO    oooooooooooooo      oo    OOOOOOOOOOOOOO",
"OOOOOOOOOOOOOOOOOOOO    oooooooooooooo      oo    OOOOOOOOOOOOOO",
"OOOOOOOOOOOOOOOOOOOO    oooooooooooooo    oo    OOOOOOOOOOOOOOOO",
"OOOOOOOOOOOOOOOOOOOO    oooooooooooooo    oo    OOOOOOOOOOOOOOOO",
"OOOOOOOOOOOOOOOOOO              oooooo    oo    OOOOOOOOOOOOOOOO",
"OOOOOOOOOOOOOOOOOO              oooooo    oo    OOOOOOOOOOOOOOOO",
"OOOOOOOOOOOOOOOOOO                  oooooo      OOOOOOOOOOOOOOOO",
"OOOOOOOOOOOOOOOOOO                  oooooo      OOOOOOOOOOOOOOOO",
"OOOOOOOOOOOOOOOOOO                              OOOOOOOOOOOOOOOO",
"OOOOOOOOOOOOOOOOOO                              OOOOOOOOOOOOOOOO",
"OOOOOOOOOOOOOOOOOO    ......                  OOOOOOOOOOOOOOOOOO",
"OOOOOOOOOOOOOOOOOO    ......                  OOOOOOOOOOOOOOOOOO",
"OOOOOOOOOOOOOOOO    ..............            OOOOOOOOOOOOOOOOOO",
"OOOOOOOOOOOOOOOO    ..............            OOOOOOOOOOOOOOOOOO",
"OOOOOOOOOOOOOOOO    ..................        OOOOOOOOOOOOOOOOOO",
"OOOOOOOOOOOOOOOO    ..................        OOOOOOOOOOOOOOOOOO",
"OOOOOOOOOOOOOOOO    ....................      OOOOOOOOOOOOOOOOOO",
"OOOOOOOOOOOOOOOO    ....................      OOOOOOOOOOOOOOOOOO",
"OOOOOOOOOOOOOO      ....................      OOOOOOOOOOOOOOOOOO",
"OOOOOOOOOOOOOO      ....................      OOOOOOOOOOOOOOOOOO",
"OOOOOOOOOOOOOO          ................      OOOOOOOOOOOOOOOOOO",
"OOOOOOOOOOOOOO          ................      OOOOOOOOOOOOOOOOOO",
"OOOOOOOOOOOOOO                  ......        OOOOOOOOOOOOOOOOOO",
"OOOOOOOOOOOOOO                  ......        OOOOOOOOOOOOOOOOOO",
"OOOOOOOOOOOOOOOOOO                            OOOOOOOOOOOOOOOOOO",
"OOOOOOOOOOOOOOOOOO                            OOOOOOOOOOOOOOOOOO",
"OOOOOOOOOOOOOOOOOOOOOOOOOOOO                OOOOOOOOOOOOOOOOOOOO",
"OOOOOOOOOOOOOOOOOOOOOOOOOOOO                OOOOOOOOOOOOOOOOOOOO",
"OOOOOOOOOOOOOOOOOOOOOOOOOOOOOOOOOOOO        OOOOOOOOOOOOOOOOOOOO",
"OOOOOOOOOOOOOOOOOOOOOOOOOOOOOOOOOOOO        OOOOOOOOOOOOOOOOOOOO",
"OOOOOOOOOOOOOOOOOOOOOOOOOOOOOOOOOOOOOOOOOOOOOOOOOOOOOOOOOOOOOOOO",
"OOOOOOOOOOOOOOOOOOOOOOOOOOOOOOOOOOOOOOOOOOOOOOOOOOOOOOOOOOOOOOOO",
"OOOOOOOOOOOOOOOOOOOOOOOOOOOOOOOOOOOOOOOOOOOOOOOOOOOOOOOOOOOOOOOO",
"OOOOOOOOOOOOOOOOOOOOOOOOOOOOOOOOOOOOOOOOOOOOOOOOOOOOOOOOOOOOOOOO",
"OOOOOOOOOOOOOOOOOOOOOOOOOOOOOOOOOOOOOOOOOOOOOOOOOOOOOOOOOOOOOOOO",
"OOOOOOOOOOOOOOOOOOOOOOOOOOOOOOOOOOOOOOOOOOOOOOOOOOOOOOOOOOOOOOOO",
"OOOOOOOOOOOOOOOOOOOOOOOOOOOOOOOOOOOOOOOOOOOOOOOOOOOOOOOOOOOOOOOO",
"OOOOOOOOOOOOOOOOOOOOOOOOOOOOOOOOOOOOOOOOOOOOOOOOOOOOOOOOOOOOOOOO",
"OOOOOOOOOOOOOOOOOOOOOOOOOOOOOOOOOOOOOOOOOOOOOOOOOOOOOOOOOOOOOOOO",
"OOOOOOOOOOOOOOOOOOOOOOOOOOOOOOOOOOOOOOOOOOOOOOOOOOOOOOOOOOOOOOOO",
"OOOOOOOOOOOOOOOOOOOOOOOOOOOOOOOOOOOOOOOOOOOOOOOOOOOOOOOOOOOOOOOO",
"OOOOOOOOOOOOOOOOOOOOOOOOOOOOOOOOOOOOOOOOOOOOOOOOOOOOOOOOOOOOOOOO"
};
