/* XPM */
static char *result[] = {
/* columns rows colors chars-per-pixel */
"64 64 6 1 ",
"  c #41173D",
". c #55173D",
"X c #9B173F",
"o c #E1173F",
"O c #AF1740",
"+ c None",
/* pixels */
"++++++++++++++++++++++++++++++++++++++++++++++++++++++++++++++++",
"++++++++++++++++++++++++++++++++++++++++++++++++++++++++++++++++",
"++++++++++++++++++++++++++++++++++++++++++++++++++++++++++++++++",
"++++++++++++++++++++++++++++++++++++++++++++++++++++++++++++++++",
"++++++++++++++++++++++++++++++++++++++++++++++++++++++++++++++++",
"++++++++++++++++++++++++++++++++++++++++++++++++++++++++++++++++",
"++++++++++++++++++++++++++++++++++++++++++++++++++++++++++++++++",
"++++++++++++++++++++++++++++++++++++++++++++++++++++++++++++++++",
"++++++++++++++++++++++++++++++++++++++++++++++oo++++++++++++++++",
"++++++++++++++++++++++++++++++++++++++++++++++oo++++++++++++++++",
"++++++++++++++++++++++++++++++++++++++++++++++oo++++++++++++++++",
"++++++++++++++++++++++++++++++++++++++++++++++oo++++++++++++++++",
"++++++++++++++++++++++++++++++++++++++++++oooooooooo++++++++++++",
"++++++++++++++++++++++++++++++++++++++++++oooooooooo++++++++++++",
"++++++++++++++++++++++++  OOOOOOOOOO++++++++++oo++++++++++++++++",
"++++++++++++++++++++++++  OOOOOOOOOO++++++++++oo++++++++++++++++",
"++++++++++++++++++++      OOOOOOOOOOOOOOOOOOOOoo++++++++++++++++",
"++++++++++++++++++++      OOOOOOOOOOOOOOOOOOOOoo++++++++++++++++",
"++++++++++++++++++++      OOOOOOOOOOOOOOOOOOOO  XX++++++++++++++",
"++++++++++++++++++++      OOOOOOOOOOOOOOOOOOOO  XX++++++++++++++",
"++++++++++++++++++++    OOOOOOOOOOOOOOOO    OO  XX++++++++++++++",
"++++++++++++++++++++    OOOOOOOOOOOOOOOO    OO  XX++++++++++++++",
"++++++++++++++++++++    OOOOOOOOOOOOOO      OO    ++++++++++++++",
"++++++++++++++++++++    OOOOOOOOOOOOOO      OO    ++++++++++++++",
"++++++++++++++++++++    OOOOOOOOOOOOOO    OO    ++++++++++++++++",
"++++++++++++++++++++    OOOOOOOOOOOOOO    OO    ++++++++++++++++",
"++++++++++++++++++              OOOOOO    OO    ++++++++++++++++",
"++++++++++++++++++              OOOOOO    OO    ++++++++++++++++",
"++++++++++++++++++                  OOOOOO      ++++++++++++++++",
"++++++++++++++++++                  OOOOOO      ++++++++++++++++",
"++++++++++++++++++                              ++++++++++++++++",
"++++++++++++++++++                              ++++++++++++++++",
"++++++++++++++++++    ......                  ++++++++++++++++++",
"++++++++++++++++++    ......                  ++++++++++++++++++",
"++++++++++++++++    ..............            ++++++++++++++++++",
"++++++++++++++++    ..............            ++++++++++++++++++",
"++++++++++++++++    ..................        ++++++++++++++++++",
"++++++++++++++++    ..................        ++++++++++++++++++",
"++++++++++++++++    ....................      ++++++++++++++++++",
"++++++++++++++++    ....................      ++++++++++++++++++",
"++++++++++++++      ....................      ++++++++++++++++++",
"++++++++++++++      ....................      ++++++++++++++++++",
"++++++++++++++          ................      ++++++++++++++++++",
"++++++++++++++          ................      ++++++++++++++++++",
"++++++++++++++                  ......        ++++++++++++++++++",
"++++++++++++++                  ......        ++++++++++++++++++",
"++++++++++++++++++                            ++++++++++++++++++",
"++++++++++++++++++                            ++++++++++++++++++",
"++++++++++++++++++++++++++++                ++++++++++++++++++++",
"++++++++++++++++++++++++++++                ++++++++++++++++++++",
"++++++++++++++++++++++++++++++++++++        ++++++++++++++++++++",
"++++++++++++++++++++++++++++++++++++        ++++++++++++++++++++",
"++++++++++++++++++++++++++++++++++++++++++++++++++++++++++++++++",
"++++++++++++++++++++++++++++++++++++++++++++++++++++++++++++++++",
"++++++++++++++++++++++++++++++++++++++++++++++++++++++++++++++++",
"++++++++++++++++++++++++++++++++++++++++++++++++++++++++++++++++",
"++++++++++++++++++++++++++++++++++++++++++++++++++++++++++++++++",
"++++++++++++++++++++++++++++++++++++++++++++++++++++++++++++++++",
"++++++++++++++++++++++++++++++++++++++++++++++++++++++++++++++++",
"++++++++++++++++++++++++++++++++++++++++++++++++++++++++++++++++",
"++++++++++++++++++++++++++++++++++++++++++++++++++++++++++++++++",
"++++++++++++++++++++++++++++++++++++++++++++++++++++++++++++++++",
"++++++++++++++++++++++++++++++++++++++++++++++++++++++++++++++++",
"++++++++++++++++++++++++++++++++++++++++++++++++++++++++++++++++"
};
