/* XPM */
static char *result[] = {
/* columns rows colors chars-per-pixel */
"64 64 5 1 ",
"  c #37173D",
". c #41173D",
"X c #5F173D",
"o c #9B173F",
"O c None",
/* pixels */
"OOOOOOOOXXXXXXXXXXXXXXXXXXXXXXXXXXOOOOOOOOOOOOOOOOOOOOOOOOOOOOOO",
"OOOOOOOOXXXXXXXXXXXXXXXXXXXXXXXXXXOOOOOOOOOOOOOOOOOOOOOOOOOOOOOO",
"OOOOOOXXooooooooooooooooooooooooXXXXXXXXXXXXXXOOOOOOOOOOOOOOOOOO",
"OOOOOOXXooooooooooooooooooooooooXXXXXXXXXXXXXXOOOOOOOOOOOOOOOOOO",
"OOOOXXooooXXXXXXXXXXXXXXXXXXXXXXooooXXXXooooXXOOOOOOOOOOOOOOOOOO",
"OOOOXXooooXXXXXXXXXXXXXXXXXXXXXXooooXXXXooooXXOOOOOOOOOOOOOOOOOO",
"OOOOXXooXXooooooooooooooooooXXXXXXXXXXooooXXOOOOOOOOOOOOOOOOOOOO",
"OOOOXXooXXooooooooooooooooooXXXXXXXXXXooooXXOOOOOOOOOOOOOOOOOOOO",
"OOXXooooXXooooooooooooooooooooooXXXXooooXXXXOOOOOOOOOOOOOOOOOOOO",
"OOXXooooXXooooooooooooooooooooooXXXXooooXXXXOOOOOOOOOOOOOOOOOOOO",
"OOXXooXXXXooooooooooooooooooooXXXXXXXXXXXXXXXXXXOOOOOOOOOOOOOOOO",
"OOXXooXXXXooooooooooooooooooooXXXXXXXXXXXXXXXXXXOOOOOOOOOOOOOOOO",
"OOXXooXXooooooooooooooooooooooooooooooXXooXXXXXXXXOOOOOOOOOOOOOO",
"OOXXooXXooooooooooooooooooooooooooooooXXooXXXXXXXXOOOOOOOOOOOOOO",
"OOXXooXXooooooooooooooooooooooooooooooXXooXX..XXXXXXOOOOOOOOOOOO",
"OOXXooXXooooooooooooooooooooooooooooooXXooXX..XXXXXXOOOOOOOOOOOO",
"OOXXooXXooooooooooooooooooooooooooooooXXooXX....XXXXXXOOOOOOOOOO",
"OOXXooXXooooooooooooooooooooooooooooooXXooXX....XXXXXXOOOOOOOOOO",
"OOXXooXXooooooooooooooooooooooooooooooXXooXX......XXXXOOOOOOOOOO",
"OOXXooXXooooooooooooooooooooooooooooooXXooXX......XXXXOOOOOOOOOO",
"OOXXooXXooooooooooooooooooooooooooooooXXooXXXX......XXXXOOOOOOOO",
"OOXXooXXooooooooooooooooooooooooooooooXXooXXXX......XXXXOOOOOOOO",
"OOXXooXXooooooXXooooooooooooooooooooooXXooXXXXXX......XXOOOOOOOO",
"OOXXooXXooooooXXooooooooooooooooooooooXXooXXXXXX......XXOOOOOOOO",
"OOXXooXXooooooooooXXooooooooooooooooooXXooXX  XX......XXXXOOOOOO",
"OOXXooXXooooooooooXXooooooooooooooooooXXooXX  XX......XXXXOOOOOO",
"OOXXooXXooooXXooooooooooooooooooooooooXXooXX  XX......XXXXOOOOOO",
"OOXXooXXooooXXooooooooooooooooooooooooXXooXX  XX......XXXXOOOOOO",
"OOXXooXXXXooooooXXooooooooooooooooXXXXooXX    XX......XXXXOOOOOO",
"OOXXooXXXXooooooXXooooooooooooooooXXXXooXX    XX......XXXXOOOOOO",
"OOOOXXooooXXooooooooooooooooooXXXXXXooXX      XX......XXXXOOOOOO",
"OOOOXXooooXXooooooooooooooooooXXXXXXooXX      XX......XXXXOOOOOO",
"OOOOOOXXooXXXXXXXXXXooooooXXXXXXooooXX        XX......XXXXOOOOOO",
"OOOOOOXXooXXXXXXXXXXooooooXXXXXXooooXX        XX......XXXXOOOOOO",
"OOOOOOXXXXooooooooooXXXXXXXXooooXXXXXX        XX......XXXXOOOOOO",
"OOOOOOXXXXooooooooooXXXXXXXXooooXXXXXX        XX......XXXXOOOOOO",
"OOOOOOXXXXXXXXXXXXXXooooooooXXXX            XXXX......XXXXOOOOOO",
"OOOOOOXXXXXXXXXXXXXXooooooooXXXX            XXXX......XXXXOOOOOO",
"OOOOOOXXXXXX......XXXXXXXXXX                XX........XXXXOOOOOO",
"OOOOOOXXXXXX......XXXXXXXXXX                XX........XXXXOOOOOO",
"OOOOOOOOXXXX....XX                        XXXX........XXOOOOOOOO",
"OOOOOOOOXXXX....XX                        XXXX........XXOOOOOOOO",
"OOOOOOOOXXXX....XXXX                    XX..........XXXXOOOOOOOO",
"OOOOOOOOXXXX....XXXX                    XX..........XXXXOOOOOOOO",
"OOOOOOOOOOXXXX....XXXX              XXXX..........XXXXOOOOOOOOOO",
"OOOOOOOOOOXXXX....XXXX              XXXX..........XXXXOOOOOOOOOO",
"OOOOOOOOOOXXXXXX......XXXXXXXX    XXXX..........XXXXXXOOOOOOOOOO",
"OOOOOOOOOOXXXXXX......XXXXXXXX    XXXX..........XXXXXXOOOOOOOOOO",
"OOOOOOOOOOOOXXXXXX............XXXX............XXXXXXOOOOOOOOOOOO",
"OOOOOOOOOOOOXXXXXX............XXXX............XXXXXXOOOOOOOOOOOO",
"OOOOOOOOOOOOOOXXXXXXXX......................XXXXXXOOOOOOOOOOOOOO",
"OOOOOOOOOOOOOOXXXXXXXX......................XXXXXXOOOOOOOOOOOOOO",
"OOOOOOOOOOOOOOOOXXXXXXXX..................XXXXXXOOOOOOOOOOOOOOOO",
"OOOOOOOOOOOOOOOOXXXXXXXX..................XXXXXXOOOOOOOOOOOOOOOO",
"OOOOOOOOOOOOOOOOOOOOXXXXXXXXXXXX........XXXXOOOOOOOOOOOOOOOOOOOO",
"OOOOOOOOOOOOOOOOOOOOXXXXXXXXXXXX........XXXXOOOOOOOOOOOOOOOOOOOO",
"OOOOOOOOOOOOOOOOOOOOOOOOXXXXXXXXXXXXXXXXOOOOOOOOOOOOOOOOOOOOOOOO",
"OOOOOOOOOOOOOOOOOOOOOOOOXXXXXXXXXXXXXXXXOOOOOOOOOOOOOOOOOOOOOOOO",
"OOOOOOOOOOOOOOOOOOOOOOOOOOOOOOOOOOOOOOOOOOOOOOOOOOOOOOOOOOOOOOOO",
"OOOOOOOOOOOOOOOOOOOOOOOOOOOOOOOOOOOOOOOOOOOOOOOOOOOOOOOOOOOOOOOO",
"OOOOOOOOOOOOOOOOOOOOOOOOOOOOOOOOOOOOOOOOOOOOOOOOOOOOOOOOOOOOOOOO",
"OOOOOOOOOOOOOOOOOOOOOOOOOOOOOOOOOOOOOOOOOOOOOOOOOOOOOOOOOOOOOOOO",
"OOOOOOOOOOOOOOOOOOOOOOOOOOOOOOOOOOOOOOOOOOOOOOOOOOOOOOOOOOOOOOOO",
"OOOOOOOOOOOOOOOOOOOOOOOOOOOOOOOOOOOOOOOOOOOOOOOOOOOOOOOOOOOOOOOO"
};
