/* XPM */
static char *result[] = {
/* columns rows colors chars-per-pixel */
"64 64 4 1 ",
"  c #5F173D",
". c #9B173F",
"X c #EB1741",
"o c None",
/* pixels */
"oooooooooooooooooooooooooooooooooooooooooooooooooooooooooooooooo",
"oooooooooooooooooooooooooooooooooooooooooooooooooooooooooooooooo",
"oooooooooooooooooooooooooooooooooooooooooooooooooooooooooooooooo",
"oooooooooooooooooooooooooooooooooooooooooooooooooooooooooooooooo",
"oooooooooooooooooooooooooooooooooooooooooooooooooooooooooooooooo",
"oooooooooooooooooooooooooooooooooooooooooooooooooooooooooooooooo",
"oooooooooooooooooooooooo                oooooooooooooooooooooooo",
"oooooooooooooooooooooooo                oooooooooooooooooooooooo",
"oooooooooooooooooooo                        oooooooooooooooooooo",
"oooooooooooooooooooo                        oooooooooooooooooooo",
"oooooooooooooooo          ............          oooooooooooooooo",
"oooooooooooooooo          ............          oooooooooooooooo",
"oooooooooooooo        ......        ......        oooooooooooooo",
"oooooooooooooo        ......        ......        oooooooooooooo",
"oooooooooooo      ....      ........      ....      oooooooooooo",
"oooooooooooo      ....      ........      ....      oooooooooooo",
"oooooooooo      ....  ....................  ....      oooooooooo",
"oooooooooo      ....  ....................  ....      oooooooooo",
"oooooooooo    ....  ........................  ....    oooooooooo",
"oooooooooo    ....  ........................  ....    oooooooooo",
"oooooooo      ..  ............................  ..      oooooooo",
"oooooooo      ..  ............................  ..      oooooooo",
"oooooooo    ....  ............................  ....    oooooooo",
"oooooooo    ....  ............................  ....    oooooooo",
"oooooo      ..  ................................  ..      oooooo",
"oooooo      ..  ................................  ..      oooooo",
"oooooo    ....  ................................  ....    oooooo",
"oooooo    ....  ................................  ....    oooooo",
"oooooo    ..  ....XX..XX....................  ....  ..    oooooo",
"oooooo    ..  ....XX..XX....................  ....  ..    oooooo",
"oooooo    ..  ................................  ..  ..    oooooo",
"oooooo    ..  ................................  ..  ..    oooooo",
"oooooo    ..  ....XX..XX....................    ..  ..    oooooo",
"oooooo    ..  ....XX..XX....................    ..  ..    oooooo",
"oooooo    ..  ........................      ..  ..  ..    oooooo",
"oooooo    ..  ........................      ..  ..  ..    oooooo",
"oooooo    ....  ......................  ....    ..  ..    oooooo",
"oooooo    ....  ......................  ....    ..  ..    oooooo",
"oooooo      ..  ......................      ....  ..      oooooo",
"oooooo      ..  ......................      ....  ..      oooooo",
"oooooooo    ....  ..............................  ..    oooooooo",
"oooooooo    ....  ..............................  ..    oooooooo",
"oooooooo      ..  ............................  ..      oooooooo",
"oooooooo      ..  ............................  ..      oooooooo",
"oooooooooo    ....  ........................  ....    oooooooooo",
"oooooooooo    ....  ........................  ....    oooooooooo",
"oooooooooo      ....  ..................    ....      oooooooooo",
"oooooooooo      ....  ..................    ....      oooooooooo",
"oooooooooooo      ....      ........    ......      oooooooooooo",
"oooooooooooo      ....      ........    ......      oooooooooooo",
"oooooooooooooo        ......        ......        oooooooooooooo",
"oooooooooooooo        ......        ......        oooooooooooooo",
"oooooooooooooooo          ............          oooooooooooooooo",
"oooooooooooooooo          ............          oooooooooooooooo",
"oooooooooooooooooooo                        oooooooooooooooooooo",
"oooooooooooooooooooo                        oooooooooooooooooooo",
"oooooooooooooooooooooooo                oooooooooooooooooooooooo",
"oooooooooooooooooooooooo                oooooooooooooooooooooooo",
"oooooooooooooooooooooooooooooooooooooooooooooooooooooooooooooooo",
"oooooooooooooooooooooooooooooooooooooooooooooooooooooooooooooooo",
"oooooooooooooooooooooooooooooooooooooooooooooooooooooooooooooooo",
"oooooooooooooooooooooooooooooooooooooooooooooooooooooooooooooooo",
"oooooooooooooooooooooooooooooooooooooooooooooooooooooooooooooooo",
"oooooooooooooooooooooooooooooooooooooooooooooooooooooooooooooooo"
};
