/* XPM */
static char *result[] = {
/* columns rows colors chars-per-pixel */
"64 64 7 1 ",
"  c #4B173D",
". c #69173D",
"X c #87173E",
"o c #A5173F",
"O c #C3173F",
"+ c #E1173F",
"@ c None",
/* pixels */
"@@@@@@@@@@@@@@@@@@@@@@@@@@@@@@@@@@@@@@@@@@@@@@@@@@@@@@@@@@@@@@@@",
"@@@@@@@@@@@@@@@@@@@@@@@@@@@@@@@@@@@@@@@@@@@@@@@@@@@@@@@@@@@@@@@@",
"@@@@@@@@@@@@@@@@@@@@@@@@@@@@@@@@@@@@@@@@@@@@@@@@@@@@@@@@@@@@@@@@",
"@@@@@@@@@@@@@@@@@@@@@@@@@@@@@@@@@@@@@@@@@@@@@@@@@@@@@@@@@@@@@@@@",
"@@@@@@@@@@@@@@@@@@@@@@@@@@@@XXXXXXXXXX@@@@@@@@@@@@@@@@@@@@@@@@@@",
"@@@@@@@@@@@@@@@@@@@@@@@@@@@@XXXXXXXXXX@@@@@@@@@@@@@@@@@@@@@@@@@@",
"@@@@@@@@@@@@@@@@@@@@@@@@@@XXXXXXXXXXXXXX@@@@@@@@@@@@@@@@@@@@@@@@",
"@@@@@@@@@@@@@@@@@@@@@@@@@@XXXXXXXXXXXXXX@@@@@@@@@@@@@@@@@@@@@@@@",
"@@@@@@@@@@@@@@@@@@@@@@@@XXXXOOOOOOOO++XXXX@@@@@@@@@@@@@@@@@@@@@@",
"@@@@@@@@@@@@@@@@@@@@@@@@XXXXOOOOOOOO++XXXX@@@@@@@@@@@@@@@@@@@@@@",
"@@@@@@@@@@@@@@@@@@@@@@@@XXXXOOOOOOOO++++XX@@@@@@@@@@@@@@@@@@@@@@",
"@@@@@@@@@@@@@@@@@@@@@@@@XXXXOOOOOOOO++++XX@@@@@@@@@@@@@@@@@@@@@@",
"@@@@@@@@@@@@@@@@@@@@@@@@XXOOOOOOOOOOOO++XX@@@@@@@@@@@@@@@@@@@@@@",
"@@@@@@@@@@@@@@@@@@@@@@@@XXOOOOOOOOOOOO++XX@@@@@@@@@@@@@@@@@@@@@@",
"@@@@@@@@@@@@@@@@@@@@@@@@XXOOOOOOOOOOOO++XX@@@@@@@@@@@@@@@@@@@@@@",
"@@@@@@@@@@@@@@@@@@@@@@@@XXOOOOOOOOOOOO++XX@@@@@@@@@@@@@@@@@@@@@@",
"@@@@@@@@@@@@@@@@@@@@ooooXXXXOOOOOOOOOO++XX@@@@@@@@@@@@@@@@@@@@@@",
"@@@@@@@@@@@@@@@@@@@@ooooXXXXOOOOOOOOOO++XX@@@@@@@@@@@@@@@@@@@@@@",
"@@@@@@@@@@@@@@@@@@@@oo  XXXXXXOOOOOOOOXXXX@@@@@@@@@@@@@@@@@@@@@@",
"@@@@@@@@@@@@@@@@@@@@oo  XXXXXXOOOOOOOOXXXX@@@@@@@@@@@@@@@@@@@@@@",
"@@@@@@@@@@@@@@@@@@@@oo    XXXXXXXXXXXXXXXX@@@@@@@@@@@@@@@@@@@@@@",
"@@@@@@@@@@@@@@@@@@@@oo    XXXXXXXXXXXXXXXX@@@@@@@@@@@@@@@@@@@@@@",
"@@@@@@@@@@@@@@@@@@@@oo  XX............XXXX@@@@@@@@@@@@@@@@@@@@@@",
"@@@@@@@@@@@@@@@@@@@@oo  XX............XXXX@@@@@@@@@@@@@@@@@@@@@@",
"@@@@@@@@@@@@@@@@@@@@ooXXXX..............XXXX@@@@@@@@@@@@@@@@@@@@",
"@@@@@@@@@@@@@@@@@@@@ooXXXX..............XXXX@@@@@@@@@@@@@@@@@@@@",
"@@@@@@@@@@@@@@@@@@@@oo......................oo@@@@@@@@@@@@@@@@@@",
"@@@@@@@@@@@@@@@@@@@@oo......................oo@@@@@@@@@@@@@@@@@@",
"@@@@@@@@@@@@@@@@@@oooo........oooooooooo....oooo@@@@@@@@@@@@@@@@",
"@@@@@@@@@@@@@@@@@@oooo........oooooooooo....oooo@@@@@@@@@@@@@@@@",
"@@@@@@@@@@@@@@@@@@oo........oo        oooo......oo@@@@@@@@@@@@@@",
"@@@@@@@@@@@@@@@@@@oo........oo        oooo......oo@@@@@@@@@@@@@@",
"@@@@@@@@@@@@@@@@oo......oo..oo    OOOO  oo......oo@@@@@@@@@@@@@@",
"@@@@@@@@@@@@@@@@oo......oo..oo    OOOO  oo......oo@@@@@@@@@@@@@@",
"@@@@@@@@@@@@@@@@oo......oo..oo          oo......oo@@@@@@@@@@@@@@",
"@@@@@@@@@@@@@@@@oo......oo..oo          oo......oo@@@@@@@@@@@@@@",
"@@@@@@@@@@@@@@oo........oo..oooo        oo........oo@@@@@@@@@@@@",
"@@@@@@@@@@@@@@oo........oo..oooo        oo........oo@@@@@@@@@@@@",
"@@@@@@@@@@@@@@oo......oooo....oooooooooooooooo....oo@@@@@@@@@@@@",
"@@@@@@@@@@@@@@oo......oooo....oooooooooooooooo....oo@@@@@@@@@@@@",
"@@@@@@@@@@@@@@ooOOOOoooooo..............oo@@oo..OOoo@@@@@@@@@@@@",
"@@@@@@@@@@@@@@ooOOOOoooooo..............oo@@oo..OOoo@@@@@@@@@@@@",
"@@@@@@@@@@@@@@ooOOOOoo  oo..............oo@@ooOOOOoo@@@@@@@@@@@@",
"@@@@@@@@@@@@@@ooOOOOoo  oo..............oo@@ooOOOOoo@@@@@@@@@@@@",
"@@@@@@@@@@@@@@ooooOOoo  oo................ooooOOOOoo@@@@@@@@@@@@",
"@@@@@@@@@@@@@@ooooOOoo  oo................ooooOOOOoo@@@@@@@@@@@@",
"@@@@@@@@@@@@@@@@oooooooooo................oo@@oooo@@@@@@@@@@@@@@",
"@@@@@@@@@@@@@@@@oooooooooo................oo@@oooo@@@@@@@@@@@@@@",
"@@@@@@@@@@@@@@@@@@@@@@@@oo......oooo......oo@@@@@@@@@@@@@@@@@@@@",
"@@@@@@@@@@@@@@@@@@@@@@@@oo......oooo......oo@@@@@@@@@@@@@@@@@@@@",
"@@@@@@@@@@@@@@@@@@@@@@@@oo......oo@@oo....oo@@@@@@@@@@@@@@@@@@@@",
"@@@@@@@@@@@@@@@@@@@@@@@@oo......oo@@oo....oo@@@@@@@@@@@@@@@@@@@@",
"@@@@@@@@@@@@@@@@@@@@@@@@oo......oo@@oo......oo@@@@@@@@@@@@@@@@@@",
"@@@@@@@@@@@@@@@@@@@@@@@@oo......oo@@oo......oo@@@@@@@@@@@@@@@@@@",
"@@@@@@@@@@@@@@@@@@@@@@@@oo......oo@@oo......oo@@@@@@@@@@@@@@@@@@",
"@@@@@@@@@@@@@@@@@@@@@@@@oo......oo@@oo......oo@@@@@@@@@@@@@@@@@@",
"@@@@@@@@@@@@@@@@@@@@@@@@oooo....oo@@@@oo....oo@@@@@@@@@@@@@@@@@@",
"@@@@@@@@@@@@@@@@@@@@@@@@oooo....oo@@@@oo....oo@@@@@@@@@@@@@@@@@@",
"@@@@@@@@@@@@@@@@@@@@@@@@@@oo....oo@@@@oo....oo@@@@@@@@@@@@@@@@@@",
"@@@@@@@@@@@@@@@@@@@@@@@@@@oo....oo@@@@oo....oo@@@@@@@@@@@@@@@@@@",
"@@@@@@@@@@@@@@@@@@@@@@@@@@oooooooooo@@oooooooooo@@@@@@@@@@@@@@@@",
"@@@@@@@@@@@@@@@@@@@@@@@@@@oooooooooo@@oooooooooo@@@@@@@@@@@@@@@@",
"@@@@@@@@@@@@@@@@@@@@@@@@@@oooooooooo@@oooooooooo@@@@@@@@@@@@@@@@",
"@@@@@@@@@@@@@@@@@@@@@@@@@@oooooooooo@@oooooooooo@@@@@@@@@@@@@@@@"
};
