/* XPM */
static char *result[] = {
/* columns rows colors chars-per-pixel */
"64 64 7 1 ",
"  c #4B173D",
". c #69173D",
"X c #87173E",
"o c #A5173F",
"O c #C3173F",
"+ c #E1173F",
"@ c None",
/* pixels */
"@@@@@@@@@@@@@@@@@@@@@@@@@@@@@@@@@@@@@@@@@@@@@@@@@@@@@@@@@@@@@@@@",
"@@@@@@@@@@@@@@@@@@@@@@@@@@@@@@@@@@@@@@@@@@@@@@@@@@@@@@@@@@@@@@@@",
"@@@@@@@@@@@@@@@@@@@@@@@@@@@@@@@@@@@@@@@@@@@@@@@@@@@@@@@@@@@@@@@@",
"@@@@@@@@@@@@@@@@@@@@@@@@@@@@@@@@@@@@@@@@@@@@@@@@@@@@@@@@@@@@@@@@",
"@@@@@@@@@@@@@@@@@@@@@@@@@@@@XXXXXXXXXX@@@@@@@@@@@@@@@@@@@@@@@@@@",
"@@@@@@@@@@@@@@@@@@@@@@@@@@@@XXXXXXXXXX@@@@@@@@@@@@@@@@@@@@@@@@@@",
"@@@@@@@@@@@@@@@@@@@@@@@@@@XXXXXXXXXXXXXX@@@@@@@@@@@@@@@@@@@@@@@@",
"@@@@@@@@@@@@@@@@@@@@@@@@@@XXXXXXXXXXXXXX@@@@@@@@@@@@@@@@@@@@@@@@",
"@@@@@@@@@@@@@@@@@@@@@@@@XXXXOOOOOOOO++XXXX@@@@@@@@@@@@@@@@@@@@@@",
"@@@@@@@@@@@@@@@@@@@@@@@@XXXXOOOOOOOO++XXXX@@@@@@@@@@@@@@@@@@@@@@",
"@@@@@@@@@@@@@@@@@@@@@@@@XXXXOOOOOOOO++++XX@@@@@@@@@@@@@@@@@@@@@@",
"@@@@@@@@@@@@@@@@@@@@@@@@XXXXOOOOOOOO++++XX@@@@@@@@@@@@@@@@@@@@@@",
"@@@@@@@@@@@@@@@@@@@@@@@@XXOOOOOOOOOOOO++XX@@@@@@@@@@@@@@@@@@@@@@",
"@@@@@@@@@@@@@@@@@@@@@@@@XXOOOOOOOOOOOO++XX@@@@@@@@@@@@@@@@@@@@@@",
"@@@@@@@@@@@@@@@@@@@@@@@@XXOOOOOOOOOOOO++XX@@@@@@@@@@@@@@@@@@@@@@",
"@@@@@@@@@@@@@@@@@@@@@@@@XXOOOOOOOOOOOO++XX@@@@@@@@@@@@@@@@@@@@@@",
"@@@@@@@@@@@@@@@@@@@@ooooXXXXOOOOOOOOOO++XX@@@@@@@@@@@@@@@@@@@@@@",
"@@@@@@@@@@@@@@@@@@@@ooooXXXXOOOOOOOOOO++XX@@@@@@@@@@@@@@@@@@@@@@",
"@@@@@@@@@@@@@@@@@@@@oo  XXXXXXOOOOOOOOXXXX@@@@@@@@@@@@@@@@@@@@@@",
"@@@@@@@@@@@@@@@@@@@@oo  XXXXXXOOOOOOOOXXXX@@@@@@@@@@@@@@@@@@@@@@",
"@@@@@@@@@@@@@@@@@@@@oo    XXXXXXXXXXXXXXXX@@@@@@@@@@@@@@@@@@@@@@",
"@@@@@@@@@@@@@@@@@@@@oo    XXXXXXXXXXXXXXXX@@@@@@@@@@@@@@@@@@@@@@",
"@@@@@@@@@@@@@@@@@@@@oo  XX............XXXX@@@@@@@@@@@@@@@@@@@@@@",
"@@@@@@@@@@@@@@@@@@@@oo  XX............XXXX@@@@@@@@@@@@@@@@@@@@@@",
"@@@@@@@@@@@@@@@@@@@@ooXXXX..............XXXX@@@@@@@@@@@@@@@@@@@@",
"@@@@@@@@@@@@@@@@@@@@ooXXXX..............XXXX@@@@@@@@@@@@@@@@@@@@",
"@@@@@@@@@@@@@@@@@@@@oooo....................XX@@@@@@@@@@@@@@@@@@",
"@@@@@@@@@@@@@@@@@@@@oooo....................XX@@@@@@@@@@@@@@@@@@",
"@@@@@@@@@@@@@@@@@@@@oo........oooooooooo....XX@@@@@@@@@@@@@@@@@@",
"@@@@@@@@@@@@@@@@@@@@oo........oooooooooo....XX@@@@@@@@@@@@@@@@@@",
"@@@@@@@@@@@@@@@@@@@@oo......oo        oooo....oo@@@@@@@@@@@@@@@@",
"@@@@@@@@@@@@@@@@@@@@oo......oo        oooo....oo@@@@@@@@@@@@@@@@",
"@@@@@@@@@@@@@@@@@@@@oo....oooo    OOOO  oo....oo@@@@@@@@@@@@@@@@",
"@@@@@@@@@@@@@@@@@@@@oo....oooo    OOOO  oo....oo@@@@@@@@@@@@@@@@",
"@@@@@@@@@@@@@@@@@@@@oo....oooo          oo....oo@@@@@@@@@@@@@@@@",
"@@@@@@@@@@@@@@@@@@@@oo....oooo          oo....oo@@@@@@@@@@@@@@@@",
"@@@@@@@@@@@@@@@@@@oo......oooooo        oo....oo@@@@@@@@@@@@@@@@",
"@@@@@@@@@@@@@@@@@@oo......oooooo        oo....oo@@@@@@@@@@@@@@@@",
"@@@@@@@@@@@@@@@@@@oo....oooo..oooooooooooo....oo@@@@@@@@@@@@@@@@",
"@@@@@@@@@@@@@@@@@@oo....oooo..oooooooooooo....oo@@@@@@@@@@@@@@@@",
"@@@@@@@@@@@@@@@@@@ooOOOOoo..............ooOOOOoo@@@@@@@@@@@@@@@@",
"@@@@@@@@@@@@@@@@@@ooOOOOoo..............ooOOOOoo@@@@@@@@@@@@@@@@",
"@@@@@@@@@@@@@@@@@@ooOOOOoo..............ooOOOOoo@@@@@@@@@@@@@@@@",
"@@@@@@@@@@@@@@@@@@ooOOOOoo..............ooOOOOoo@@@@@@@@@@@@@@@@",
"@@@@@@@@@@@@@@@@@@ooooOOoo................OOoooo@@@@@@@@@@@@@@@@",
"@@@@@@@@@@@@@@@@@@ooooOOoo................OOoooo@@@@@@@@@@@@@@@@",
"@@@@@@@@@@@@@@@@@@@@oooo................oooooo@@@@@@@@@@@@@@@@@@",
"@@@@@@@@@@@@@@@@@@@@oooo................oooooo@@@@@@@@@@@@@@@@@@",
"@@@@@@@@@@@@@@@@@@@@@@oo........oooo....oo@@@@@@@@@@@@@@@@@@@@@@",
"@@@@@@@@@@@@@@@@@@@@@@oo........oooo....oo@@@@@@@@@@@@@@@@@@@@@@",
"@@@@@@@@@@@@@@@@@@@@@@oo......oo@@oo....oo@@@@@@@@@@@@@@@@@@@@@@",
"@@@@@@@@@@@@@@@@@@@@@@oo......oo@@oo....oo@@@@@@@@@@@@@@@@@@@@@@",
"@@@@@@@@@@@@@@@@@@@@oooo....oo@@@@oo....oo@@@@@@@@@@@@@@@@@@@@@@",
"@@@@@@@@@@@@@@@@@@@@oooo....oo@@@@oo....oo@@@@@@@@@@@@@@@@@@@@@@",
"@@@@@@@@@@@@@@@@@@@@oo......oo@@@@oo......oo@@@@@@@@@@@@@@@@@@@@",
"@@@@@@@@@@@@@@@@@@@@oo......oo@@@@oo......oo@@@@@@@@@@@@@@@@@@@@",
"@@@@@@@@@@@@@@@@@@@@oo....oo@@@@@@@@oo....oo@@@@@@@@@@@@@@@@@@@@",
"@@@@@@@@@@@@@@@@@@@@oo....oo@@@@@@@@oo....oo@@@@@@@@@@@@@@@@@@@@",
"@@@@@@@@@@@@@@@@@@@@oo....oo@@@@@@@@oo....oo@@@@@@@@@@@@@@@@@@@@",
"@@@@@@@@@@@@@@@@@@@@oo....oo@@@@@@@@oo....oo@@@@@@@@@@@@@@@@@@@@",
"@@@@@@@@@@@@@@@@@@@@oooooooooo@@@@@@oooooooooo@@@@@@@@@@@@@@@@@@",
"@@@@@@@@@@@@@@@@@@@@oooooooooo@@@@@@oooooooooo@@@@@@@@@@@@@@@@@@",
"@@@@@@@@@@@@@@@@@@@@oooooooooo@@@@@@oooooooooo@@@@@@@@@@@@@@@@@@",
"@@@@@@@@@@@@@@@@@@@@oooooooooo@@@@@@oooooooooo@@@@@@@@@@@@@@@@@@"
};
