/* XPM */
static char *result[] = {
/* columns rows colors chars-per-pixel */
"64 64 4 1 ",
"  c #5F173D",
". c #69173d",
"X c #73173d",
"o c None",
/* pixels */
"oooooooooooooooooooooooooooooooooooooooooooooooooooooooooooooooo",
"oooooooooooooooooooooooooooooooooooooooooooooooooooooooooooooooo",
"oooooooooooooooooooooooooooooooooooooooooooooooooooooooooooooooo",
"oooooooooooooooooooooooooooooooooooooooooooooooooooooooooooooooo",
"oooooooo................................................oooooooo",
"oooooooo................................................oooooooo",
"ooooooooXXXXXXXXXXXXXXXXXXXXXXXXXXXXXXXXXXXXXXXXXXXXXX..oooooooo",
"ooooooooXXXXXXXXXXXXXXXXXXXXXXXXXXXXXXXXXXXXXXXXXXXXXX..oooooooo",
"ooooXXXXXXXXXXXXXXXXXXXXXXXXXXXXXXXXXXXXXXXXXXXXXXXXXXXX....oooo",
"ooooXXXXXXXXXXXXXXXXXXXXXXXXXXXXXXXXXXXXXXXXXXXXXXXXXXXX....oooo",
"ooooXXXXXXXXXXooooooooooooooooooooooooooooooooooooXXXXXXXX..oooo",
"ooooXXXXXXXXXXooooooooooooooooooooooooooooooooooooXXXXXXXX..oooo",
"ooooXXXXXXXXXXXXooooooooooooooooooooooooooooooooXXXX..XXXX..oooo",
"ooooXXXXXXXXXXXXooooooooooooooooooooooooooooooooXXXX..XXXX..oooo",
"ooooXXXX..oo..XXXXooooooooooooooooooooooooooooXXXX..ooXXXX..oooo",
"ooooXXXX..oo..XXXXooooooooooooooooooooooooooooXXXX..ooXXXX..oooo",
"ooooXXXX..oooo..XXXXooooooooooooooooooooooooXXXX..ooooXXXX..oooo",
"ooooXXXX..oooo..XXXXooooooooooooooooooooooooXXXX..ooooXXXX..oooo",
"ooooXXXX..oooooo..XXXXooooooooooooooooooooXXXX..ooooooXXXX..oooo",
"ooooXXXX..oooooo..XXXXooooooooooooooooooooXXXX..ooooooXXXX..oooo",
"ooooXXXX..oooooooo..XXXXooooooooooooooooXXXX..ooooooooXXXX..oooo",
"ooooXXXX..oooooooo..XXXXooooooooooooooooXXXX..ooooooooXXXX..oooo",
"ooooXXXX..oooooooooo..XXXXooooooooooooXXXX..ooooooooooXXXX..oooo",
"ooooXXXX..oooooooooo..XXXXooooooooooooXXXX..ooooooooooXXXX..oooo",
"ooooXXXX..oooooooooooo..XXXXooooooooXXXX..ooooooooooooXXXX..oooo",
"ooooXXXX..oooooooooooo..XXXXooooooooXXXX..ooooooooooooXXXX..oooo",
"ooooXXXX..oooooooooooooo..XXXXooooXXXX..ooooooooooooooXXXX..oooo",
"ooooXXXX..oooooooooooooo..XXXXooooXXXX..ooooooooooooooXXXX..oooo",
"ooooXXXX..oooooooooooooooo..XXXXXXXX..ooooooooooooooooXXXX..oooo",
"ooooXXXX..oooooooooooooooo..XXXXXXXX..ooooooooooooooooXXXX..oooo",
"ooooXXXX..ooooooooooooooooooXXXXXXXXooooooooooooooooooXXXX..oooo",
"ooooXXXX..ooooooooooooooooooXXXXXXXXooooooooooooooooooXXXX..oooo",
"ooooXXXX..ooooooooooooooooooXXXXXXXXooooooooooooooooooXX....oooo",
"ooooXXXX..ooooooooooooooooooXXXXXXXXooooooooooooooooooXX....oooo",
"ooooXXXX..ooooooooooooooooXXXX....XXXXooooooooooooooooXX..  oooo",
"ooooXXXX..ooooooooooooooooXXXX....XXXXooooooooooooooooXX..  oooo",
"ooooXXXX..ooooooooooooooXXXX..oooo..XXXXooooooooooooooXX..  oooo",
"ooooXXXX..ooooooooooooooXXXX..oooo..XXXXooooooooooooooXX..  oooo",
"ooooXXXX..ooooooooooooXXXX..oooooooo..XXXXooooooooooooXX..  oooo",
"ooooXXXX..ooooooooooooXXXX..oooooooo..XXXXooooooooooooXX..  oooo",
"ooooXXXX..ooooooooooXXXX..oooooooooooo..XXXXooooooooooXX..  oooo",
"ooooXXXX..ooooooooooXXXX..oooooooooooo..XXXXooooooooooXX..  oooo",
"ooooXXXX..ooooooooXXXX..oooooooooooooooo..XXXXooooooooXX..  oooo",
"ooooXXXX..ooooooooXXXX..oooooooooooooooo..XXXXooooooooXX..  oooo",
"ooooXXXX..ooooooXXXX..oooooooooooooooooooo..XXXXooooooXX..  oooo",
"ooooXXXX..ooooooXXXX..oooooooooooooooooooo..XXXXooooooXX..  oooo",
"ooooXXXX..ooooXXXX..oooooooooooooooooooooooo..XXXXooooXX..  oooo",
"ooooXXXX..ooooXXXX..oooooooooooooooooooooooo..XXXXooooXX..  oooo",
"ooooXXXX..ooXXXX..oooooooooooooooooooooooooooo..XXXXooXX..  oooo",
"ooooXXXX..ooXXXX..oooooooooooooooooooooooooooo..XXXXooXX..  oooo",
"ooooXXXXXXXXXX..oooooooooooooooooooooooooooooooo..XXXXXX..  oooo",
"ooooXXXXXXXXXX..oooooooooooooooooooooooooooooooo..XXXXXX..  oooo",
"ooooXXXXXXXX..ooooooooooooooooooooooooooooooooooooXXXXXX..  oooo",
"ooooXXXXXXXX..ooooooooooooooooooooooooooooooooooooXXXXXX..  oooo",
"ooooXXXXXXXXXXXXXXXXXXXXXXXXXXXXXXXXXXXXXXXXXXXXXXXXXXXX..  oooo",
"ooooXXXXXXXXXXXXXXXXXXXXXXXXXXXXXXXXXXXXXXXXXXXXXXXXXXXX..  oooo",
"ooooooooXXXXXXXXXX......................................oooooooo",
"ooooooooXXXXXXXXXX......................................oooooooo",
"oooooooo..............                                  oooooooo",
"oooooooo..............                                  oooooooo",
"oooooooooooooooooooooooooooooooooooooooooooooooooooooooooooooooo",
"oooooooooooooooooooooooooooooooooooooooooooooooooooooooooooooooo",
"oooooooooooooooooooooooooooooooooooooooooooooooooooooooooooooooo",
"oooooooooooooooooooooooooooooooooooooooooooooooooooooooooooooooo"
};
